<svg xmlns="http://www.w3.org/2000/svg" xmlns:xlink="http://www.w3.org/1999/xlink" width="23" height="23" viewBox="0 0 23 23">
  <defs>
    <style>
      .cls-1 {
        fill-rule: evenodd;
        filter: url(#filter);
      }
    </style>
    <filter id="filter" x="1224" y="2649" width="23" height="23" filterUnits="userSpaceOnUse">
      <feFlood result="flood" flood-color="#111c39"/>
      <feComposite result="composite" operator="in" in2="SourceGraphic"/>
      <feBlend result="blend" in2="SourceGraphic"/>
    </filter>
  </defs>
  <path id="Forma_1" data-name="Forma 1" class="cls-1" d="M1241.5,2652.92a2.006,2.006,0,0,0-.59-1.42l-1.91-1.91a2.053,2.053,0,0,0-1.44-.59h-0.12v4.04h4.06v-0.12h0Zm-5.19,9.98a2.661,2.661,0,0,1,.64-1.05l4.57-4.54v-2.92h-4.74a0.653,0.653,0,0,1-.65-0.67V2649h-10.11a2.021,2.021,0,0,0-2.02,2.02v18.96a2.027,2.027,0,0,0,2.02,2.02h13.46a2.044,2.044,0,0,0,2.04-2.02v-5.03l-0.74.72a2.806,2.806,0,0,1-1.05.65l-2.15.71-0.32.02a1.7,1.7,0,0,1-1.37-.7,1.715,1.715,0,0,1-.23-1.52Zm-8.94-1.77h6.72a0.67,0.67,0,0,1,0,1.34h-6.72A0.67,0.67,0,1,1,1227.37,2661.13Zm-0.67-2.02a0.672,0.672,0,0,1,.67-0.68h6.72a0.675,0.675,0,0,1,0,1.35h-6.72A0.67,0.67,0,0,1,1226.7,2659.11Zm0,5.39a0.672,0.672,0,0,1,.67-0.68h6.72a0.675,0.675,0,0,1,0,1.35h-6.72A0.67,0.67,0,0,1,1226.7,2664.5Zm10.08,3.37a0.67,0.67,0,0,1,0,1.34h-4.04a0.67,0.67,0,1,1,0-1.34h4.04Zm-9.41-10.79a0.67,0.67,0,0,1,0-1.34h9.41a0.67,0.67,0,0,1,0,1.34h-9.41Zm10.16,6.42-0.59,1.76a0.334,0.334,0,0,0,.43.42l1.75-.58Zm5.23-5.55-4.44,4.44,1.92,1.91c1-1,2.95-2.95,4.43-4.44Zm3.84-1.93a1.32,1.32,0,0,0-.95-0.38,1.361,1.361,0,0,0-.96.38l-0.98.98,1.92,1.91,0.98-.98A1.355,1.355,0,0,0,1246.6,2656.02Zm0.01,1.91h0Zm0,0a0.01,0.01,0,0,1,.01-0.01A0.01,0.01,0,0,0,1246.61,2657.93Zm0.01-.01h0Z" transform="translate(-1224 -2649)"/>
</svg>
