<svg xmlns="http://www.w3.org/2000/svg" xmlns:xlink="http://www.w3.org/1999/xlink" width="24" height="23" viewBox="0 0 24 23">
  <defs>
    <style>
      .cls-1 {
        fill-rule: evenodd;
        filter: url(#filter);
      }
    </style>
    <filter id="filter" x="424" y="2649" width="24" height="23" filterUnits="userSpaceOnUse">
      <feFlood result="flood" flood-color="#fff"/>
      <feComposite result="composite" operator="in" in2="SourceGraphic"/>
      <feBlend result="blend" in2="SourceGraphic"/>
    </filter>
  </defs>
  <path class="cls-1" d="M431.1,2654.9a19.3,19.3,0,0,0-.835,5.09h5.217v-5.09H431.1Zm-1.879,6.11H424a12.047,12.047,0,0,0,1.461,5.09h4.487A25.039,25.039,0,0,1,429.217,2661.01Zm2.192-7.13h4.069v-4.48C433.808,2649.71,432.348,2651.44,431.409,2653.88Zm5.113-4.48v4.48h4.069C439.652,2651.44,438.191,2649.71,436.522,2649.4Zm4.382,5.5h-4.382v5.09h5.217A19.3,19.3,0,0,0,440.9,2654.9Zm1.878,6.11a19.417,19.417,0,0,1-.73,5.09h4.487a12.062,12.062,0,0,0,1.461-5.09h-5.218Zm-12.521,0a19.3,19.3,0,0,0,.835,5.09h4.382v-5.09h-5.217Zm-4.8-6.11a12.047,12.047,0,0,0-1.461,5.09h5.217a25.039,25.039,0,0,1,.731-5.09h-4.487Zm5.948,12.21c0.939,2.45,2.4,4.18,4.069,4.48v-4.48h-4.069Zm-1.148,0h-4.174A12.163,12.163,0,0,0,433.6,2672,10.066,10.066,0,0,1,430.261,2667.11Zm11.374,0a8.868,8.868,0,0,1-3.34,4.89,11.505,11.505,0,0,0,7.513-4.89h-4.173ZM438.4,2649a9.992,9.992,0,0,1,3.339,4.88h4.174A12.193,12.193,0,0,0,438.4,2649Zm-12.209,4.88h4.174A8.8,8.8,0,0,1,433.7,2649,11.534,11.534,0,0,0,426.191,2653.88Zm10.331,13.23v4.48c1.669-.3,3.13-2.03,4.069-4.48h-4.069Zm0-6.1v5.09H440.9a19.3,19.3,0,0,0,.835-5.09h-5.217Zm10.017-6.11h-4.487a25.041,25.041,0,0,1,.73,5.09H448A12.062,12.062,0,0,0,446.539,2654.9Z" transform="translate(-424 -2649)"/>
</svg>
