<svg xmlns="http://www.w3.org/2000/svg" xmlns:xlink="http://www.w3.org/1999/xlink" width="15" height="15" viewBox="0 0 15 15">
  <defs>
    <style>
      .cls-1 {
        fill-rule: evenodd;
        filter: url(#filter);
      }
    </style>
    <filter id="filter" x="999" y="114" width="15" height="15" filterUnits="userSpaceOnUse">
      <feFlood result="flood" flood-color="#131f4f"/>
      <feComposite result="composite" operator="in" in2="SourceGraphic"/>
      <feBlend result="blend" in2="SourceGraphic"/>
    </filter>
  </defs>
  <path id="icon" class="cls-1" d="M1006.5,114a7.5,7.5,0,1,0,7.5,7.5A7.506,7.506,0,0,0,1006.5,114Zm3.15,12.51-0.32-.556a0.218,0.218,0,0,0-.18-0.1,0.168,0.168,0,0,0-.1.029,0.19,0.19,0,0,0-.1.126,0.18,0.18,0,0,0,.02.159l0.32,0.557a5.876,5.876,0,0,1-2.4.688V126.62a0.39,0.39,0,1,0-.78,0v0.786a5.877,5.877,0,0,1-2.37-.672l0.32-.558a0.22,0.22,0,0,0,.02-0.159,0.227,0.227,0,0,0-.1-0.127,0.209,0.209,0,0,0-.1-0.027,0.193,0.193,0,0,0-.18.105l-0.32.558a5.933,5.933,0,0,1-1.8-1.734l0.68-.39a0.4,0.4,0,0,0,.15-0.54,0.4,0.4,0,0,0-.54-0.145l-0.68.393a5.974,5.974,0,0,1-.61-2.384l0.65,0a0.222,0.222,0,0,0,.15-0.061,0.2,0.2,0,0,0,.06-0.148,0.213,0.213,0,0,0-.21-0.208l-0.65,0a5.807,5.807,0,0,1,.61-2.421l0.68,0.392a0.38,0.38,0,0,0,.19.053,0.409,0.409,0,0,0,.35-0.2,0.4,0.4,0,0,0-.15-0.538l-0.68-.391a5.968,5.968,0,0,1,1.77-1.715l0.32,0.556a0.186,0.186,0,0,0,.08.077,0.2,0.2,0,0,0,.2,0,0.194,0.194,0,0,0,.1-0.128,0.177,0.177,0,0,0-.02-0.158l-0.32-.556a5.816,5.816,0,0,1,2.4-.689v0.785a0.39,0.39,0,1,0,.78,0V115.59a5.86,5.86,0,0,1,2.37.671l-0.32.559a0.207,0.207,0,0,0,.08.285,0.175,0.175,0,0,0,.1.028,0.193,0.193,0,0,0,.18-0.1l0.32-.558a5.91,5.91,0,0,1,1.8,1.734l-0.68.391a0.4,0.4,0,0,0-.15.538,0.409,0.409,0,0,0,.35.2,0.38,0.38,0,0,0,.19-0.053l0.68-.392a5.97,5.97,0,0,1,.61,2.385l-0.65,0a0.218,0.218,0,0,0-.15.062,0.206,0.206,0,0,0,.05.328,0.21,0.21,0,0,0,.1.028h0l0.65,0a5.811,5.811,0,0,1-.61,2.421l-0.68-.393a0.4,0.4,0,0,0-.54.145,0.4,0.4,0,0,0,.15.54l0.68,0.39A5.968,5.968,0,0,1,1009.65,126.507Zm-0.23-7.15-2.53,1.405a0.84,0.84,0,0,0-.78,0l-2.53-1.405a0.49,0.49,0,0,0-.67.194,0.5,0.5,0,0,0,.19.674l2.58,1.433a0.844,0.844,0,0,0,.82.671,0.825,0.825,0,0,0,.81-0.671l2.59-1.433a0.5,0.5,0,0,0,.19-0.674A0.49,0.49,0,0,0,1009.42,119.357Z" transform="translate(-999 -114)"/>
</svg>
