<svg xmlns="http://www.w3.org/2000/svg" xmlns:xlink="http://www.w3.org/1999/xlink" width="32" height="24" viewBox="0 0 32 24">
  <defs>
    <style>
      .cls-1 {
        fill-rule: evenodd;
        filter: url(#filter);
      }
    </style>
    <filter id="filter" x="812" y="2846" width="32" height="24" filterUnits="userSpaceOnUse">
      <feFlood result="flood" flood-color="#111c39"/>
      <feComposite result="composite" operator="in" in2="SourceGraphic"/>
      <feBlend result="blend" in2="SourceGraphic"/>
    </filter>
  </defs>
  <path id="Forma_1" data-name="Forma 1" class="cls-1" d="M825.671,2859.16a7.5,7.5,0,0,0-4.723-5.79,6.366,6.366,0,0,0-6.695,1.67,8.3,8.3,0,0,0-.457,10.85,6.417,6.417,0,0,0,9.749.52,8.074,8.074,0,0,0,2.264-5.69A9.048,9.048,0,0,0,825.671,2859.16Zm-3.719,6.67a4.551,4.551,0,0,1-5.248-1.25,5.169,5.169,0,0,1-1.067-1.79h-1.059a0.78,0.78,0,0,1,0-1.55h0.706a5.89,5.89,0,0,1-.014-0.84h-0.692a0.78,0.78,0,0,1,0-1.55h0.983a5.4,5.4,0,0,1,1.143-1.99,4.552,4.552,0,0,1,5.248-1.24,0.79,0.79,0,0,1,.395.99,0.676,0.676,0,0,1-.893.44,3.276,3.276,0,0,0-3.767.89,4.144,4.144,0,0,0-.6.91h4.037a0.774,0.774,0,0,1,0,1.54h-4.446a3.457,3.457,0,0,0,.021.85h4.064a0.774,0.774,0,0,1,0,1.54H817.2a2.542,2.542,0,0,0,.492.7,3.275,3.275,0,0,0,3.767.9v0.01a0.674,0.674,0,0,1,.893.45A0.8,0.8,0,0,1,821.952,2865.83Zm12.167-19.08a17.457,17.457,0,0,0-5.332-.75,16.863,16.863,0,0,0-5.263.75c-1.461.5-1.779,1.02-1.786,1.13a0.024,0.024,0,0,1,.007.02c0.034,0.17.45,0.7,1.939,1.18a17.083,17.083,0,0,0,5.1.7,17.688,17.688,0,0,0,5.325-.75c1.509-.5,1.835-1.03,1.835-1.14S835.621,2847.26,834.119,2846.75Zm-5.637,17.53v-0.14c-0.637-.01-1.26-0.05-1.849-0.1a9.609,9.609,0,0,1-1.329,2.53,19.351,19.351,0,0,0,3.213.32Zm6.024-13.78a20.561,20.561,0,0,1-11.217.06,7,7,0,0,1-1.5-.64l0.049,2.18a8.155,8.155,0,0,1,2.167,1.36c0.021,0.01.035,0.01,0.055,0.02a19.391,19.391,0,0,0,10.048-.17c1.509-.51,1.835-1.04,1.835-1.14a0.678,0.678,0,0,1,.09-0.37v-1.98A6.77,6.77,0,0,1,834.506,2850.5Zm0.007,4.29a18.772,18.772,0,0,1-5.733.81,23.465,23.465,0,0,1-3.137-.22,9.586,9.586,0,0,1,1.24,2.86c0.595,0.05,1.239.08,1.9,0.08h0.062c1.136-1.39,4.21-2.09,7.188-2.18v-2.04A8.4,8.4,0,0,1,834.513,2854.79Zm-7.492,7.73c0.464,0.04.942,0.06,1.434,0.07l-0.042-2.67c0-.02-0.007-0.04-0.007-0.06-0.429,0-.852-0.02-1.26-0.05a8.232,8.232,0,0,1,.034.91A10.526,10.526,0,0,1,827.021,2862.52Zm16.972,0.97v-1.98a7.259,7.259,0,0,1-1.53.68,18.7,18.7,0,0,1-5.658.79,18.963,18.963,0,0,1-5.4-.72,7.784,7.784,0,0,1-1.578-.68l0.027,1.77,0.014,0.66c0.568,0.74,3.144,1.69,6.945,1.69a17.233,17.233,0,0,0,5.311-.74c1.5-.51,1.815-1.03,1.815-1.14s0.062-.23.062-0.33h-0.007Zm-1.468,2.94a18.016,18.016,0,0,1-5.713.81,15.457,15.457,0,0,1-6.917-1.35l0.034,2.23v0.01c0,0.12.3,0.63,1.766,1.14a17.06,17.06,0,0,0,5.256.73,16.621,16.621,0,0,0,5.269-.76c1.468-.51,1.78-1.04,1.78-1.15v-2.33A8.12,8.12,0,0,1,842.525,2866.43Zm-0.374-8a17.187,17.187,0,0,0-5.332-.73h-0.09a17.338,17.338,0,0,0-4.958.65c-1.419.45-1.925,0.95-1.994,1.17a0.659,0.659,0,0,1,.028.13,3.6,3.6,0,0,0,1.987,1.12,17.821,17.821,0,0,0,5.027.66,17.1,17.1,0,0,0,5.27-.73c1.537-.5,1.883-1.04,1.89-1.15C843.958,2859.42,843.612,2858.92,842.151,2858.43Z" transform="translate(-812 -2846)"/>
</svg>
