<svg xmlns="http://www.w3.org/2000/svg" xmlns:xlink="http://www.w3.org/1999/xlink" width="26" height="24" viewBox="0 0 26 24">
  <defs>
    <style>
      .cls-1 {
        fill-rule: evenodd;
        filter: url(#filter);
      }
    </style>
    <filter id="filter" x="1218" y="2846" width="26" height="24" filterUnits="userSpaceOnUse">
      <feFlood result="flood" flood-color="#111c39"/>
      <feComposite result="composite" operator="in" in2="SourceGraphic"/>
      <feBlend result="blend" in2="SourceGraphic"/>
    </filter>
  </defs>
  <path id="Forma_1" data-name="Forma 1" class="cls-1" d="M1231,2846a2.25,2.25,0,1,1-2.29,2.25A2.275,2.275,0,0,1,1231,2846Zm3.71,3.07a3.814,3.814,0,0,1-7.42,0,3.017,3.017,0,0,0-2.39,2.93v3a1.525,1.525,0,0,0,3.05,0v-1.5h6.1v1.5a1.525,1.525,0,0,0,3.05,0v-3A3.017,3.017,0,0,0,1234.71,2849.07Zm8.11,15.26a2.321,2.321,0,0,0-3.13.82,2.244,2.244,0,0,0,.84,3.08,2.377,2.377,0,0,0,3.18-.83A2.249,2.249,0,0,0,1242.82,2864.33Zm-1.4-5.12-2.64-1.5a1.533,1.533,0,0,0-2.08.54,1.487,1.487,0,0,0,.56,2.05l1.32,0.75-3.05,5.2-1.32-.75a1.548,1.548,0,0,0-2.09.55,1.49,1.49,0,0,0,.56,2.05l2.64,1.5a3.1,3.1,0,0,0,3.77-.57,3.723,3.723,0,0,1-.72-4.63,3.848,3.848,0,0,1,4.43-1.7A2.967,2.967,0,0,0,1241.42,2859.21Zm-19.11,5.94a2.321,2.321,0,0,0-3.13-.82,2.249,2.249,0,0,0-.89,3.07,2.372,2.372,0,0,0,3.18.83A2.244,2.244,0,0,0,1222.31,2865.15Zm7.57,0.9a1.548,1.548,0,0,0-2.09-.55l-1.32.75-3.05-5.2,1.32-.75a1.487,1.487,0,0,0,.56-2.05,1.533,1.533,0,0,0-2.08-.54l-2.64,1.5a2.967,2.967,0,0,0-1.38,3.49,3.848,3.848,0,0,1,4.43,1.7,3.723,3.723,0,0,1-.72,4.63,3.1,3.1,0,0,0,3.77.57l2.64-1.5A1.49,1.49,0,0,0,1229.88,2866.05Z" transform="translate(-1218 -2846)"/>
</svg>
